<svg width="16" height="19" viewBox="0 0 16 19" fill="none" xmlns="http://www.w3.org/2000/svg">
    <path d="M8.01667 17.1083C6.075 17.1083 4.13333 16.8 2.29167 16.1833C1.59167 15.9417 1.05833 15.45 0.825 14.8083C0.583334 14.1667 0.666667 13.4583 1.05 12.825L2.00833 11.2333C2.20833 10.9 2.39167 10.2333 2.39167 9.84168V7.43335C2.39167 4.33335 4.91667 1.80835 8.01667 1.80835C11.1167 1.80835 13.6417 4.33335 13.6417 7.43335V9.84168C13.6417 10.225 13.825 10.9 14.025 11.2417L14.975 12.825C15.3333 13.425 15.4 14.15 15.1583 14.8083C14.9167 15.4667 14.3917 15.9667 13.7333 16.1833C11.9 16.8 9.95833 17.1083 8.01667 17.1083ZM8.01667 3.05835C5.60833 3.05835 3.64167 5.01668 3.64167 7.43335V9.84168C3.64167 10.45 3.39167 11.35 3.08333 11.875L2.125 13.4667C1.94167 13.775 1.89167 14.1 2 14.375C2.1 14.6583 2.35 14.875 2.69167 14.9917C6.175 16.1583 9.86667 16.1583 13.35 14.9917C13.65 14.8917 13.8833 14.6667 13.9917 14.3667C14.1 14.0667 14.075 13.7417 13.9083 13.4667L12.95 11.875C12.6333 11.3333 12.3917 10.4417 12.3917 9.83335V7.43335C12.3917 5.01668 10.4333 3.05835 8.01667 3.05835Z" fill="#292D32"/>
    <path d="M9.56667 3.28328C9.50833 3.28328 9.45 3.27494 9.39167 3.25828C9.15 3.19161 8.91667 3.14161 8.69167 3.10828C7.98333 3.01661 7.3 3.06661 6.65833 3.25828C6.425 3.33328 6.175 3.25828 6.01667 3.08328C5.85833 2.90828 5.80833 2.65828 5.9 2.43328C6.24167 1.55828 7.075 0.983276 8.025 0.983276C8.975 0.983276 9.80833 1.54994 10.15 2.43328C10.2333 2.65828 10.1917 2.90828 10.0333 3.08328C9.90833 3.21661 9.73333 3.28328 9.56667 3.28328Z" fill="#292D32"/>
    <path d="M8.01667 19.0083C7.19167 19.0083 6.39167 18.675 5.80834 18.0916C5.225 17.5083 4.89167 16.7083 4.89167 15.8833H6.14167C6.14167 16.375 6.34167 16.8583 6.69167 17.2083C7.04167 17.5583 7.525 17.7583 8.01667 17.7583C9.05 17.7583 9.89167 16.9166 9.89167 15.8833H11.1417C11.1417 17.6083 9.74167 19.0083 8.01667 19.0083Z" fill="#292D32"/>
    <circle cx="13" cy="4" r="3" fill="#EB5757"/>
</svg>
