<svg width="15" height="18" viewBox="0 0 15 18" fill="none" xmlns="http://www.w3.org/2000/svg">
    <path opacity="0.4" d="M11.0331 0.666504H3.96646C1.66646 0.666504 0.83313 1.49984 0.83313 3.8415V14.1582C0.83313 16.4998 1.66646 17.3332 3.96646 17.3332H11.0248C13.3331 17.3332 14.1665 16.4998 14.1665 14.1582V3.8415C14.1665 1.49984 13.3331 0.666504 11.0331 0.666504Z" fill="#9F56D4"/>
    <path d="M9.16646 4.2085H5.83313C5.49146 4.2085 5.20813 3.92516 5.20813 3.5835C5.20813 3.24183 5.49146 2.9585 5.83313 2.9585H9.16646C9.50813 2.9585 9.79146 3.24183 9.79146 3.5835C9.79146 3.92516 9.50813 4.2085 9.16646 4.2085Z" fill="#9F56D4"/>
    <path d="M7.5002 15.0834C8.30562 15.0834 8.95854 14.4305 8.95854 13.6251C8.95854 12.8197 8.30562 12.1667 7.5002 12.1667C6.69479 12.1667 6.04187 12.8197 6.04187 13.6251C6.04187 14.4305 6.69479 15.0834 7.5002 15.0834Z" fill="#9F56D4"/>
</svg>
