<svg width="17" height="14" viewBox="0 0 17 14" fill="none" xmlns="http://www.w3.org/2000/svg">
    <path d="M16.8327 1.5835V12.4168C16.8327 12.7502 16.7077 13.0418 16.4577 13.2918C16.2077 13.5418 15.916 13.6668 15.5827 13.6668H1.41602C1.08268 13.6668 0.791016 13.5418 0.541016 13.2918C0.291016 13.0418 0.166016 12.7502 0.166016 12.4168V1.5835C0.166016 1.25016 0.291016 0.958496 0.541016 0.708496C0.791016 0.458496 1.08268 0.333496 1.41602 0.333496H15.5827C15.916 0.333496 16.2077 0.458496 16.4577 0.708496C16.7077 0.958496 16.8327 1.25016 16.8327 1.5835ZM1.41602 3.85433H15.5827V1.5835H1.41602V3.85433ZM1.41602 6.54183V12.4168H15.5827V6.54183H1.41602Z" fill="#9F56D4"/>
</svg>
