<svg width="22" height="22" viewBox="0 0 22 22" fill="none" xmlns="http://www.w3.org/2000/svg">
    <path d="M11 21.75C5.07 21.75 0.25 16.93 0.25 11C0.25 5.07 5.07 0.25 11 0.25C16.93 0.25 21.75 5.07 21.75 11C21.75 16.93 16.93 21.75 11 21.75ZM11 1.75C5.9 1.75 1.75 5.9 1.75 11C1.75 16.1 5.9 20.25 11 20.25C16.1 20.25 20.25 16.1 20.25 11C20.25 5.9 16.1 1.75 11 1.75Z" fill="white"/>
    <path d="M14.71 14.93C14.58 14.93 14.45 14.9 14.33 14.82L11.23 12.97C10.46 12.51 9.89001 11.5 9.89001 10.61V6.51001C9.89001 6.10001 10.23 5.76001 10.64 5.76001C11.05 5.76001 11.39 6.10001 11.39 6.51001V10.61C11.39 10.97 11.69 11.5 12 11.68L15.1 13.53C15.46 13.74 15.57 14.2 15.36 14.56C15.21 14.8 14.96 14.93 14.71 14.93Z" fill="white"/>
</svg>
