<svg width="20" height="20" viewBox="0 0 20 20" fill="none" xmlns="http://www.w3.org/2000/svg">
    <path d="M5.24 0H3.34C1.15 0 0 1.15 0 3.33V5.23C0 7.41 1.15 8.56 3.33 8.56H5.23C7.41 8.56 8.56 7.41 8.56 5.23V3.33C8.57 1.15 7.42 0 5.24 0Z" fill="white"/>
    <path d="M16.67 0H14.77C12.59 0 11.44 1.15 11.44 3.33V5.23C11.44 7.41 12.59 8.56 14.77 8.56H16.67C18.85 8.56 20 7.41 20 5.23V3.33C20 1.15 18.85 0 16.67 0Z" fill="white"/>
    <path d="M16.67 11.4299H14.77C12.59 11.4299 11.44 12.5799 11.44 14.7599V16.6599C11.44 18.8399 12.59 19.9899 14.77 19.9899H16.67C18.85 19.9899 20 18.8399 20 16.6599V14.7599C20 12.5799 18.85 11.4299 16.67 11.4299Z" fill="white"/>
    <path d="M5.24 11.4299H3.34C1.15 11.4299 0 12.5799 0 14.7599V16.6599C0 18.8499 1.15 19.9999 3.33 19.9999H5.23C7.41 19.9999 8.56 18.8499 8.56 16.6699V14.7699C8.57 12.5799 7.42 11.4299 5.24 11.4299Z" fill="white"/>
</svg>
