<svg width="18" height="17" viewBox="0 0 18 17" fill="none" xmlns="http://www.w3.org/2000/svg">
    <path d="M1.96149 13.2392V15.2052H16.0385V13.2392H1.96149ZM1.96149 3.87049H4.40624C4.34011 3.74549 4.28539 3.58978 4.24205 3.40336C4.19873 3.21693 4.17707 3.04625 4.17707 2.89132C4.17707 2.22217 4.41205 1.65339 4.88201 1.18499C5.35197 0.716569 5.91445 0.482361 6.56947 0.482361C7.00152 0.482361 7.40117 0.590833 7.76841 0.807778C8.13566 1.02471 8.42511 1.3015 8.63676 1.63815L9.01041 2.21469L9.38405 1.63815C9.60959 1.28761 9.89871 1.00735 10.2514 0.797361C10.6041 0.587361 10.9823 0.482361 11.3859 0.482361C12.0684 0.482361 12.6452 0.713548 13.1163 1.17592C13.5874 1.63828 13.8229 2.21315 13.8229 2.90051C13.8229 3.04716 13.8055 3.19771 13.7708 3.35215C13.7361 3.5066 13.684 3.67938 13.6146 3.87049H16.0385C16.4232 3.87049 16.7567 4.01171 17.0392 4.29417C17.3216 4.57662 17.4629 4.91018 17.4629 5.29486V15.2052C17.4629 15.5885 17.3216 15.9209 17.0392 16.2024C16.7567 16.4838 16.4232 16.6246 16.0385 16.6246H1.96149C1.57817 16.6246 1.24577 16.4838 0.964302 16.2024C0.682843 15.9209 0.542114 15.5885 0.542114 15.2052V5.29486C0.542114 4.91018 0.682843 4.57662 0.964302 4.29417C1.24577 4.01171 1.57817 3.87049 1.96149 3.87049ZM1.96149 10.8954H16.0385V5.29486H11.0004L13.014 8.11099L11.9592 8.89586L8.99999 4.7609L6.04076 8.89586L4.98595 8.11099L7.00949 5.29486H1.96149V10.8954ZM6.59103 3.99549C6.89659 3.99549 7.157 3.88785 7.37228 3.67257C7.58756 3.45729 7.6952 3.19688 7.6952 2.89132C7.6952 2.5891 7.58756 2.32951 7.37228 2.11257C7.157 1.89562 6.89659 1.78715 6.59103 1.78715C6.28548 1.78715 6.02506 1.89562 5.80978 2.11257C5.5945 2.32951 5.48686 2.5891 5.48686 2.89132C5.48686 3.19688 5.5945 3.45729 5.80978 3.67257C6.02506 3.88785 6.28548 3.99549 6.59103 3.99549ZM11.3881 3.99549C11.7069 3.99549 11.9741 3.88785 12.1897 3.67257C12.4053 3.45729 12.5131 3.19688 12.5131 2.89132C12.5131 2.5891 12.4053 2.32951 12.1897 2.11257C11.9741 1.89562 11.7069 1.78715 11.3881 1.78715C11.0964 1.78715 10.843 1.89562 10.6277 2.11257C10.4124 2.32951 10.3048 2.5891 10.3048 2.89132C10.3048 3.19688 10.4124 3.45729 10.6277 3.67257C10.843 3.88785 11.0964 3.99549 11.3881 3.99549Z" fill="#9F56D4"/>
</svg>
