<svg width="22" height="22" viewBox="0 0 22 22" fill="none" xmlns="http://www.w3.org/2000/svg">
    <path d="M1 8.75C0.59 8.75 0.25 8.41 0.25 8V5.5C0.25 2.6 2.61 0.25 5.5 0.25H8C8.41 0.25 8.75 0.59 8.75 1C8.75 1.41 8.41 1.75 8 1.75H5.5C3.43 1.75 1.75 3.43 1.75 5.5V8C1.75 8.41 1.41 8.75 1 8.75Z" fill="white"/>
    <path d="M21 8.75C20.59 8.75 20.25 8.41 20.25 8V5.5C20.25 3.43 18.57 1.75 16.5 1.75H14C13.59 1.75 13.25 1.41 13.25 1C13.25 0.59 13.59 0.25 14 0.25H16.5C19.39 0.25 21.75 2.6 21.75 5.5V8C21.75 8.41 21.41 8.75 21 8.75Z" fill="white"/>
    <path d="M16.5 21.75H15C14.59 21.75 14.25 21.41 14.25 21C14.25 20.59 14.59 20.25 15 20.25H16.5C18.57 20.25 20.25 18.57 20.25 16.5V15C20.25 14.59 20.59 14.25 21 14.25C21.41 14.25 21.75 14.59 21.75 15V16.5C21.75 19.4 19.39 21.75 16.5 21.75Z" fill="white"/>
    <path d="M8 21.75H5.5C2.61 21.75 0.25 19.4 0.25 16.5V14C0.25 13.59 0.59 13.25 1 13.25C1.41 13.25 1.75 13.59 1.75 14V16.5C1.75 18.57 3.43 20.25 5.5 20.25H8C8.41 20.25 8.75 20.59 8.75 21C8.75 21.41 8.41 21.75 8 21.75Z" fill="white"/>
    <path d="M8 10.25H6C4.59 10.25 3.75 9.41 3.75 8V6C3.75 4.59 4.59 3.75 6 3.75H8C9.41 3.75 10.25 4.59 10.25 6V8C10.25 9.41 9.41 10.25 8 10.25ZM6 5.25C5.41 5.25 5.25 5.41 5.25 6V8C5.25 8.59 5.41 8.75 6 8.75H8C8.59 8.75 8.75 8.59 8.75 8V6C8.75 5.41 8.59 5.25 8 5.25H6Z" fill="white"/>
    <path d="M16 10.25H14C12.59 10.25 11.75 9.41 11.75 8V6C11.75 4.59 12.59 3.75 14 3.75H16C17.41 3.75 18.25 4.59 18.25 6V8C18.25 9.41 17.41 10.25 16 10.25ZM14 5.25C13.41 5.25 13.25 5.41 13.25 6V8C13.25 8.59 13.41 8.75 14 8.75H16C16.59 8.75 16.75 8.59 16.75 8V6C16.75 5.41 16.59 5.25 16 5.25H14Z" fill="white"/>
    <path d="M8 18.25H6C4.59 18.25 3.75 17.41 3.75 16V14C3.75 12.59 4.59 11.75 6 11.75H8C9.41 11.75 10.25 12.59 10.25 14V16C10.25 17.41 9.41 18.25 8 18.25ZM6 13.25C5.41 13.25 5.25 13.41 5.25 14V16C5.25 16.59 5.41 16.75 6 16.75H8C8.59 16.75 8.75 16.59 8.75 16V14C8.75 13.41 8.59 13.25 8 13.25H6Z" fill="white"/>
    <path d="M16 18.25H14C12.59 18.25 11.75 17.41 11.75 16V14C11.75 12.59 12.59 11.75 14 11.75H16C17.41 11.75 18.25 12.59 18.25 14V16C18.25 17.41 17.41 18.25 16 18.25ZM14 13.25C13.41 13.25 13.25 13.41 13.25 14V16C13.25 16.59 13.41 16.75 14 16.75H16C16.59 16.75 16.75 16.59 16.75 16V14C16.75 13.41 16.59 13.25 16 13.25H14Z" fill="white"/>
</svg>
