<svg width="19" height="18" viewBox="0 0 19 18" fill="none" xmlns="http://www.w3.org/2000/svg">
    <path fill-rule="evenodd" clip-rule="evenodd" d="M9.71614 9.8507C11.3238 10.6275 12.9833 11.0145 14.3868 10.9384C14.3954 10.9384 14.404 10.9369 14.4119 10.9369L14.5119 0.598826C14.5162 0.233522 14.1215 0.0135955 13.8303 0.217867L5.44382 6.08434C6.12256 7.42553 7.69215 8.87183 9.71542 9.8507H9.71614Z" fill="#00C6FB"/>
    <path fill-rule="evenodd" clip-rule="evenodd" d="M14.0367 11.9297C12.5735 11.9297 10.9141 11.5129 9.31503 10.7406C7.10913 9.67448 5.45038 8.15287 4.65301 6.63574L0.389325 9.61931C0.0557081 9.85265 0.177224 10.3894 0.574113 10.4446L7.73466 11.4548C8.156 11.5152 8.54209 11.7306 8.82178 12.0616L13.5802 17.7022C13.8447 18.0161 14.3423 17.8252 14.3466 17.4077L14.3998 11.92C14.2797 11.9274 14.1582 11.9304 14.0353 11.9304L14.0367 11.9297Z" fill="#00C6FB"/>
    <path fill-rule="evenodd" clip-rule="evenodd" d="M14.0356 11.145C12.5725 11.145 10.913 10.729 9.31395 9.95595C5.55285 8.13763 3.37786 4.9975 4.36361 2.80568C5.34865 0.61535 9.06804 0.323106 12.8291 2.14292C14.0594 2.73784 15.1753 3.50945 16.0546 4.37425C16.2437 4.56063 16.2523 4.873 16.0733 5.06907C15.8921 5.26589 15.5923 5.27484 15.4032 5.08846C14.5972 4.29523 13.569 3.5855 12.4294 3.03456C9.25787 1.50103 5.95764 1.5875 5.2221 3.22242C4.48656 4.85734 6.54436 7.53301 9.71444 9.06654C11.3221 9.84411 12.9809 10.2303 14.3851 10.1543C15.6814 10.0842 16.5809 9.63089 16.9203 8.87867C17.2726 8.09438 16.9318 7.19977 16.5838 6.58546C16.4508 6.35062 16.5255 6.05018 16.752 5.91226C16.9785 5.77434 17.2683 5.85261 17.4013 6.08671C18.057 7.24077 18.1915 8.37992 17.7802 9.29318C17.287 10.3898 16.0992 11.0437 14.4361 11.1346C14.3031 11.1421 14.1701 11.145 14.0356 11.145Z" fill="#00C6FB"/>
</svg>
