<svg width="54" height="52" viewBox="0 0 54 52" fill="none" xmlns="http://www.w3.org/2000/svg">
    <path opacity="0.4" d="M52.76 21.8401L50.1467 32.9868C47.9067 42.6134 43.48 46.5068 35.16 45.7068C33.8267 45.6001 32.3867 45.3601 30.84 44.9868L26.36 43.9201C15.24 41.2801 11.8 35.7868 14.4133 24.6401L17.0267 13.4668C17.56 11.2001 18.2 9.22677 19 7.6001C22.12 1.14677 27.4267 -0.586564 36.3333 1.5201L40.7867 2.5601C51.96 5.17344 55.3733 10.6934 52.76 21.8401Z" fill="#BDBDBD"/>
    <path d="M35.16 45.7068C33.5067 46.8268 31.4267 47.7601 28.8933 48.5868L24.68 49.9734C14.0933 53.3868 8.51999 50.5334 5.07999 39.9468L1.66666 29.4134C-1.74667 18.8268 1.07999 13.2268 11.6667 9.81343L15.88 8.42676C16.9733 8.0801 18.0133 7.78676 19 7.6001C18.2 9.22676 17.56 11.2001 17.0267 13.4668L14.4133 24.6401C11.8 35.7868 15.24 41.2801 26.36 43.9201L30.84 44.9868C32.3867 45.3601 33.8267 45.6001 35.16 45.7068Z" fill="#BDBDBD"/>
</svg>
